<svg width="30" height="29" viewBox="0 0 30 29" fill="none" xmlns="http://www.w3.org/2000/svg">
<path d="M27.371 12.7972C27.1549 12.813 26.9532 12.8917 26.8091 13.0648L25.3686 14.6389L28.3217 17.787L29.7623 16.213C30.0792 15.8824 30.0792 15.3315 29.7623 15.0009L27.976 13.0648C27.832 12.9017 27.6358 12.8058 27.4286 12.7972M24.5474 15.5519L15.8463 25.0907V28.3333H18.8139L27.5438 18.7787M25.9304 0H2.88115C2.11702 0 1.38419 0.331679 0.84387 0.922071C0.303549 1.51246 0 2.31321 0 3.14815V22.037C0 22.872 0.303549 23.6727 0.84387 24.2631C1.38419 24.8535 2.11702 25.1852 2.88115 25.1852H12.9652V23.7843L24.8355 10.8454C25.5126 10.0741 26.449 9.64908 27.4286 9.64908C27.9184 9.64908 28.4082 9.74352 28.8692 9.94815V3.14815C28.8692 1.38519 27.5438 0 25.9304 0ZM25.9304 6.2963L14.4058 14.1667L2.88115 6.2963V3.14815L14.4058 11.0185L25.9304 3.14815" fill="#BF5813"/>
</svg>
