<svg width="227" height="126" viewBox="0 0 227 126" fill="none" xmlns="http://www.w3.org/2000/svg">
<path d="M98.961 119.131L68.9872 92.2613C67.1753 90.6351 64.2424 90.5744 62.4458 92.1196L31.6813 118.631C28.7561 121.155 30.9135 125.615 35.0672 125.642C55.3133 125.764 75.5593 125.885 95.8054 126C99.8823 126.027 101.855 121.729 98.9533 119.131H98.961Z" fill="#BF5813"/>
<path d="M142.333 83.5364V121.807C142.333 124.12 144.432 126 147.021 126H191.308C195.522 126 197.59 121.409 194.559 118.788C179.794 106.031 165.037 93.2739 150.272 80.517C147.297 77.9505 142.333 79.8308 142.333 83.5364Z" fill="#BF5813"/>
<path d="M142.333 47.1314V8.86275C142.333 6.54817 145.615 4.66669 149.667 4.66669H218.988C225.581 4.66669 228.824 9.26035 224.078 11.8802C200.971 24.6388 177.864 37.3903 154.757 50.1489C150.102 52.7191 142.333 50.8305 142.333 47.1314Z" fill="#BF5813"/>
<path d="M12.1863 0H123.169C129.889 0 135.333 4.92307 135.333 11.0001V114.979C135.333 124.873 122.021 129.734 114.417 122.619C77.4258 87.9598 40.4265 53.3003 3.43487 18.6408C-4.01783 11.6556 1.45654 0.00682958 12.1863 0.00682958V0Z" fill="#BF5813"/>
</svg>
