<svg width="266" height="77" viewBox="0 0 266 77" fill="none" xmlns="http://www.w3.org/2000/svg">
<path d="M34.247 55.4377L23.8741 45.415C23.2471 44.8084 22.2321 44.7857 21.6104 45.3621L10.9638 55.2514C9.95149 56.1928 10.6981 57.8565 12.1355 57.8666C19.142 57.9119 26.1485 57.9572 33.155 58C34.5659 58.01 35.2487 56.4067 34.2444 55.4377H34.247Z" fill="#EF8F42"/>
<path d="M49.2568 42.1604V56.436C49.2568 57.2986 49.9833 58 50.879 58H66.2053C67.6637 58 68.3792 56.2875 67.3305 55.3097C62.2208 50.5512 57.1139 45.7927 52.0042 41.0341C50.9746 40.0768 49.2568 40.7782 49.2568 42.1604Z" fill="#EF8F42"/>
<path d="M49.2568 28.5807V14.3059C49.2568 13.4425 50.3924 12.7407 51.7947 12.7407H75.7844C78.0661 12.7407 79.1884 14.4542 77.5458 15.4315C69.5493 20.1906 61.5527 24.9472 53.5562 29.7063C51.9452 30.665 49.2568 29.9606 49.2568 28.5807Z" fill="#EF8F42"/>
<path d="M4.21728 11H42.6246C44.9503 11 46.8343 12.8364 46.8343 15.1032V53.8889C46.8343 57.5795 42.2274 59.3929 39.596 56.739C26.7945 43.8104 13.9903 30.8819 1.18869 17.9533C-1.39044 15.3477 0.504061 11.0025 4.21728 11.0025V11Z" fill="#EF8F42"/>
<path d="M85.6 28.56H104.032V35.536H85.6V28.56ZM103.136 16.4C102.709 15.76 102.219 15.3333 101.664 15.12C101.152 14.864 100.64 14.736 100.128 14.736C99.488 14.736 98.9333 14.9067 98.464 15.248C98.0373 15.5467 97.696 16.0587 97.44 16.784C97.184 17.5093 97.056 18.4267 97.056 19.536V58H89.056V17.68C89.056 15.4187 89.44 13.52 90.208 11.984C90.976 10.448 92.128 9.27466 93.664 8.464C95.2 7.61066 97.0773 7.184 99.296 7.184C100.619 7.184 101.749 7.35467 102.688 7.696C103.627 7.99466 104.416 8.37866 105.056 8.848C105.739 9.31733 106.272 9.76533 106.656 10.192L103.136 16.4ZM106.987 43.28C106.987 40.208 107.691 37.52 109.099 35.216C110.55 32.912 112.491 31.12 114.923 29.84C117.398 28.56 120.192 27.92 123.307 27.92C126.422 27.92 129.195 28.56 131.627 29.84C134.102 31.12 136.043 32.912 137.451 35.216C138.902 37.52 139.627 40.208 139.627 43.28C139.627 46.3093 138.902 48.9973 137.451 51.344C136.043 53.648 134.102 55.44 131.627 56.72C129.195 58 126.422 58.64 123.307 58.64C120.192 58.64 117.398 58 114.923 56.72C112.491 55.44 110.55 53.648 109.099 51.344C107.691 48.9973 106.987 46.3093 106.987 43.28ZM115.435 43.28C115.435 44.944 115.776 46.416 116.459 47.696C117.184 48.9333 118.144 49.9147 119.339 50.64C120.534 51.3227 121.856 51.664 123.307 51.664C124.758 51.664 126.08 51.3227 127.275 50.64C128.47 49.9147 129.408 48.9333 130.091 47.696C130.816 46.416 131.179 44.944 131.179 43.28C131.179 41.616 130.816 40.144 130.091 38.864C129.408 37.584 128.47 36.6027 127.275 35.92C126.08 35.2373 124.758 34.896 123.307 34.896C121.856 34.896 120.534 35.2373 119.339 35.92C118.144 36.6027 117.184 37.584 116.459 38.864C115.776 40.144 115.435 41.616 115.435 43.28ZM153.974 28.56V58H145.846V28.56H153.974ZM162.614 37.2C162.059 36.688 161.483 36.304 160.886 36.048C160.331 35.7493 159.627 35.6 158.774 35.6C157.75 35.6 156.875 35.8773 156.15 36.432C155.425 36.9867 154.87 37.776 154.486 38.8C154.145 39.7813 153.974 40.976 153.974 42.384L151.67 40.08C151.67 37.7333 152.118 35.664 153.014 33.872C153.91 32.0373 155.083 30.5867 156.534 29.52C157.985 28.4107 159.478 27.856 161.014 27.856C162.081 27.856 163.083 28.048 164.022 28.432C165.003 28.816 165.793 29.392 166.39 30.16L162.614 37.2ZM168.438 60.048H176.566C176.609 61.328 176.95 62.416 177.59 63.312C178.23 64.2507 179.105 64.976 180.214 65.488C181.323 66 182.625 66.256 184.118 66.256C185.483 66.256 186.763 65.936 187.958 65.296C189.195 64.656 190.177 63.6747 190.902 62.352C191.67 61.0293 192.054 59.3653 192.054 57.36V28.56H200.054V57.36C200.054 60.9867 199.329 63.9733 197.878 66.32C196.47 68.6667 194.571 70.3733 192.182 71.44C189.793 72.5493 187.19 73.104 184.374 73.104C180.961 73.104 178.102 72.5493 175.798 71.44C173.494 70.3733 171.723 68.8373 170.486 66.832C169.291 64.8693 168.609 62.608 168.438 60.048ZM167.862 43.024C167.862 39.7387 168.523 36.9867 169.846 34.768C171.169 32.5067 172.918 30.8 175.094 29.648C177.27 28.496 179.574 27.92 182.006 27.92C184.481 27.92 186.657 28.5173 188.534 29.712C190.454 30.9067 191.947 32.6347 193.014 34.896C194.123 37.1147 194.678 39.824 194.678 43.024C194.678 46.1813 194.123 48.8907 193.014 51.152C191.947 53.4133 190.454 55.1413 188.534 56.336C186.657 57.488 184.481 58.064 182.006 58.064C179.574 58.064 177.27 57.488 175.094 56.336C172.918 55.184 171.169 53.4987 169.846 51.28C168.523 49.0187 167.862 46.2667 167.862 43.024ZM176.438 43.024C176.438 44.7733 176.801 46.2667 177.526 47.504C178.251 48.6987 179.233 49.616 180.47 50.256C181.707 50.896 183.03 51.216 184.438 51.216C185.675 51.216 186.87 50.9173 188.022 50.32C189.217 49.68 190.177 48.7627 190.902 47.568C191.67 46.3307 192.054 44.816 192.054 43.024C192.054 41.6587 191.841 40.464 191.414 39.44C190.987 38.416 190.39 37.5627 189.622 36.88C188.897 36.1973 188.086 35.6853 187.19 35.344C186.294 34.96 185.377 34.768 184.438 34.768C183.03 34.768 181.707 35.088 180.47 35.728C179.233 36.368 178.251 37.3067 177.526 38.544C176.801 39.7387 176.438 41.232 176.438 43.024ZM221.984 58.64C218.784 58.64 215.989 58 213.6 56.72C211.211 55.44 209.355 53.6693 208.032 51.408C206.752 49.104 206.112 46.3947 206.112 43.28C206.112 40.1227 206.752 37.4133 208.032 35.152C209.355 32.848 211.211 31.0773 213.6 29.84C215.989 28.56 218.805 27.92 222.048 27.92C225.291 27.92 228.043 28.5173 230.304 29.712C232.608 30.864 234.357 32.5707 235.552 34.832C236.747 37.0507 237.344 39.7387 237.344 42.896C237.344 43.28 237.323 43.6853 237.28 44.112C237.28 44.5387 237.259 44.88 237.216 45.136H210.848V40.016H229.984L227.744 42.96C227.915 42.704 228.064 42.3627 228.192 41.936C228.363 41.4667 228.448 41.0827 228.448 40.784C228.448 39.3333 228.171 38.096 227.616 37.072C227.104 36.048 226.357 35.2373 225.376 34.64C224.395 34.0427 223.243 33.744 221.92 33.744C220.299 33.744 218.933 34.1067 217.824 34.832C216.757 35.5147 215.925 36.56 215.328 37.968C214.773 39.3333 214.475 41.04 214.432 43.088C214.432 45.0507 214.709 46.7147 215.264 48.08C215.861 49.4453 216.736 50.4907 217.888 51.216C219.04 51.9413 220.427 52.304 222.048 52.304C223.883 52.304 225.44 51.9627 226.72 51.28C228.043 50.5547 229.131 49.488 229.984 48.08L237.216 50.32C235.68 53.0933 233.632 55.184 231.072 56.592C228.555 57.9573 225.525 58.64 221.984 58.64Z" fill="#EF8F42"/>
</svg>
