<svg width="30" height="31" viewBox="0 0 30 31" fill="none" xmlns="http://www.w3.org/2000/svg">
<path d="M16.542 0.335097C17.6366 0.330897 18.7311 0.341898 19.8253 0.368096L20.1163 0.378596C20.4523 0.390596 20.7838 0.405595 21.1843 0.423594C22.7802 0.498592 23.8691 0.750584 24.8246 1.12107C25.8145 1.50206 26.6485 2.01804 27.4825 2.85201C28.245 3.6014 28.8351 4.50788 29.2119 5.50842C29.5823 6.46389 29.8343 7.55435 29.9093 9.1503C29.9273 9.54928 29.9423 9.88227 29.9543 10.2183L29.9633 10.5093C29.99 11.603 30.0015 12.6971 29.9978 13.7911L29.9993 14.9101V16.875C30.003 17.9696 29.9915 19.0642 29.9648 20.1584L29.9558 20.4494C29.9438 20.7854 29.9288 21.1169 29.9108 21.5174C29.8358 23.1133 29.5808 24.2023 29.2119 25.1578C28.8364 26.1594 28.2461 27.0666 27.4825 27.8157C26.7324 28.5781 25.8255 29.1682 24.8246 29.5451C23.8691 29.9156 22.7802 30.1676 21.1843 30.2426C20.7838 30.2606 20.4523 30.2756 20.1163 30.2876L19.8253 30.2966C18.7311 30.3232 17.6366 30.3347 16.542 30.3311L15.4231 30.3326H13.4597C12.3651 30.3363 11.2706 30.3248 10.1763 30.2981L9.88536 30.2891C9.52929 30.2762 9.1733 30.2612 8.81741 30.2441C7.22149 30.1691 6.13255 29.9141 5.1756 29.5451C4.17468 29.1691 3.26805 28.5789 2.51924 27.8157C1.75584 27.0661 1.16514 26.1591 0.788325 25.1578C0.417844 24.2023 0.165857 23.1133 0.0908607 21.5174C0.074156 21.1615 0.0591566 20.8055 0.0458631 20.4494L0.0383637 20.1584C0.0107105 19.0642 -0.00179023 17.9696 0.000865457 16.875V13.7911C-0.00332078 12.6971 0.00767983 11.603 0.0338639 10.5093L0.0443633 10.2183C0.0563627 9.88227 0.0713618 9.54928 0.0893609 9.1503C0.164357 7.55285 0.416344 6.46539 0.786825 5.50842C1.16386 4.50739 1.75572 3.60115 2.52074 2.85351C3.26904 2.08967 4.17509 1.49842 5.1756 1.12107C6.13255 0.750584 7.21999 0.498592 8.81741 0.423594L9.88536 0.378596L10.1763 0.371097C11.2701 0.343457 12.3641 0.330956 13.4582 0.333598L16.542 0.335097ZM15.0001 7.83484C14.0064 7.82079 13.0198 8.00437 12.0977 8.37493C11.1756 8.74548 10.3363 9.29561 9.62864 9.99335C8.92097 10.6911 8.35904 11.5225 7.97549 12.4393C7.59194 13.3561 7.39442 14.34 7.39442 15.3338C7.39442 16.3276 7.59194 17.3115 7.97549 18.2283C8.35904 19.1452 8.92097 19.9766 9.62864 20.6743C10.3363 21.3721 11.1756 21.9222 12.0977 22.2927C13.0198 22.6633 14.0064 22.8469 15.0001 22.8328C16.9891 22.8328 18.8967 22.0427 20.3031 20.6362C21.7096 19.2297 22.4997 17.3221 22.4997 15.3331C22.4997 13.344 21.7096 11.4364 20.3031 10.03C18.8967 8.62349 16.9891 7.83484 15.0001 7.83484ZM15.0001 10.8347C15.5978 10.8237 16.1918 10.9319 16.7472 11.153C17.3026 11.3741 17.8085 11.7037 18.2351 12.1225C18.6617 12.5413 19.0007 13.0409 19.232 13.5922C19.4634 14.1434 19.5827 14.7352 19.5828 15.3331C19.5829 15.9309 19.4638 16.5228 19.2326 17.0741C19.0014 17.6254 18.6627 18.1252 18.2362 18.5441C17.8097 18.963 17.304 19.2928 16.7486 19.5141C16.1932 19.7353 15.5993 19.8438 15.0016 19.8329C13.8082 19.8329 12.6636 19.3588 11.8198 18.515C10.9759 17.6711 10.5018 16.5265 10.5018 15.3331C10.5018 14.1397 10.9759 12.9951 11.8198 12.1512C12.6636 11.3073 13.8082 10.8332 15.0016 10.8332L15.0001 10.8347ZM22.8747 5.58492C22.3908 5.60429 21.9332 5.81014 21.5977 6.15936C21.2621 6.50858 21.0748 6.97407 21.0748 7.45835C21.0748 7.94264 21.2621 8.40813 21.5977 8.75735C21.9332 9.10657 22.3908 9.31242 22.8747 9.33179C23.3719 9.33179 23.8488 9.13425 24.2004 8.78264C24.5521 8.43102 24.7496 7.95412 24.7496 7.45686C24.7496 6.95959 24.5521 6.48269 24.2004 6.13108C23.8488 5.77946 23.3719 5.58192 22.8747 5.58192V5.58492Z" fill="#BF5813"/>
</svg>
