<svg width="30" height="31" viewBox="0 0 30 31" fill="none" xmlns="http://www.w3.org/2000/svg">
<path d="M26.6667 0.333252C27.5507 0.333252 28.3986 0.684441 29.0237 1.30956C29.6488 1.93468 30 2.78253 30 3.66659V26.9999C30 27.884 29.6488 28.7318 29.0237 29.3569C28.3986 29.9821 27.5507 30.3333 26.6667 30.3333H3.33333C2.44928 30.3333 1.60143 29.9821 0.976311 29.3569C0.351189 28.7318 0 27.884 0 26.9999V3.66659C0 2.78253 0.351189 1.93468 0.976311 1.30956C1.60143 0.684441 2.44928 0.333252 3.33333 0.333252H26.6667ZM25.8333 26.1666V17.3333C25.8333 15.8922 25.2609 14.5103 24.2419 13.4913C23.223 12.4724 21.841 11.8999 20.4 11.8999C18.9833 11.8999 17.3333 12.7666 16.5333 14.0666V12.2166H11.8833V26.1666H16.5333V17.9499C16.5333 16.6666 17.5667 15.6166 18.85 15.6166C19.4688 15.6166 20.0623 15.8624 20.4999 16.3C20.9375 16.7376 21.1833 17.3311 21.1833 17.9499V26.1666H25.8333ZM6.46667 9.59992C7.20927 9.59992 7.92146 9.30492 8.44657 8.77982C8.97167 8.25472 9.26667 7.54253 9.26667 6.79992C9.26667 5.24992 8.01667 3.98325 6.46667 3.98325C5.71964 3.98325 5.00321 4.28001 4.47498 4.80823C3.94675 5.33646 3.65 6.05289 3.65 6.79992C3.65 8.34992 4.91667 9.59992 6.46667 9.59992ZM8.78333 26.1666V12.2166H4.16667V26.1666H8.78333Z" fill="#BF5813"/>
</svg>
